<?xml version="1.0" encoding="utf-8"?>
<!-- Generator: Adobe Illustrator 21.0.0, SVG Export Plug-In . SVG Version: 6.00 Build 0)  -->
<svg version="1.1" id="Layer_1" xmlns="http://www.w3.org/2000/svg" xmlns:xlink="http://www.w3.org/1999/xlink" x="0px" y="0px"
	 viewBox="0 0 496.7 224.2" style="enable-background:new 0 0 496.7 224.2;" xml:space="preserve">
<style type="text/css">
	.st0{opacity:0.89;fill:none;enable-background:new    ;}
	.st1{fill:none;enable-background:new    ;}
	.st2{opacity:0.95;fill:#C20737;enable-background:new    ;}
	.st3{fill:#C20737;}
	.st4{fill:#060B0F;}
</style>
<image style="overflow:visible;" width="296" height="223" xlink:href="540FB394466BCA89.png"  transform="matrix(1 0 0 1 -0.7427 -7.226562e-02)">
</image>
<path class="st0" d="z"/>
<image style="overflow:visible;" width="141" height="86" xlink:href="540FB394466BCA8F.png"  transform="matrix(1 0 0 1 62.2573 71.9277)">
</image>
<path class="st1" d="z"/>
<rect x="89.3" y="98.9" class="st2" width="268" height="13"/>
<rect id="Rectangle_1_copy" x="-0.7" y="98.9" class="st3" width="148" height="13"/>
<path class="st4" d="M356.7,62.6v69.7c0,10.7,0.2,17.4,0.5,20.1c0.3,2.8,1.5,4.9,3.5,6.3c2,1.5,5.7,2.2,10.9,2.2h2.6v5.6h-53.8v-5.6
	h4.2c5.8,0,9.5-0.8,11.3-2.5c1.7-1.7,2.8-3.7,3.1-6c0.3-2.3,0.4-9.1,0.4-20.2V102c0-11.7-0.5-18.9-1.6-21.5
	c-1.1-2.6-2.6-4.2-4.4-4.9c-1.8-0.7-5-1-9.6-1h-3.3V69c14.5-1.5,25.7-3.6,33.7-6.5H356.7z M333.1,11.5c0-3.5,1.2-6.5,3.7-9
	c2.5-2.5,5.5-3.8,9-3.8c3.5,0,6.5,1.3,8.9,3.8c2.4,2.5,3.7,5.5,3.7,9c0,3.6-1.2,6.6-3.7,9.2c-2.4,2.5-5.4,3.8-8.9,3.8
	c-3.5,0-6.5-1.3-9-3.8C334.3,18.2,333.1,15.1,333.1,11.5z"/>
<path class="st4" d="M447.5,72.2h-30.2v60.4c0,9.3,0.4,15.5,1.2,18.7c0.8,3.2,2.5,5.8,5.2,7.8c2.6,2,5.5,2.9,8.5,2.9
	c5.9,0,10.9-3.3,15.3-10l3.9,2.3c-2.5,5.4-6.2,9.4-11.2,12.1c-4.9,2.7-9.9,4.1-15,4.1c-5.9,0-11-1.7-15.4-5.2
	c-4.4-3.5-7.2-7.5-8.3-12.1s-1.6-12.8-1.6-24.4V72.2h-14.5v-5.6c6.7-0.2,12.7-3,17.9-8.4c5.3-5.5,8.7-13.1,10.1-22.9h3.9v31.4h30.2
	V72.2z"/>
<path class="st4" d="M469.7,157.4c0-3.6,1.3-6.7,3.8-9.2c2.6-2.6,5.6-3.8,9.2-3.8c3.7,0,6.8,1.3,9.3,3.8c2.6,2.6,3.8,5.6,3.8,9.2
	c0,3.7-1.3,6.8-3.9,9.3c-2.6,2.6-5.7,3.8-9.3,3.8c-3.7,0-6.8-1.3-9.3-4C471,164,469.7,160.9,469.7,157.4z"/>
<path id="Rectangle_1_copy_2" class="st3" d="M283.3,142.3l74.2-43.4l3.8,6.6L287,148.9L283.3,142.3z"/>
</svg>
