<?xml version="1.0" encoding="utf-8"?>
<!-- Generator: Adobe Illustrator 21.0.0, SVG Export Plug-In . SVG Version: 6.00 Build 0)  -->
<svg version="1.1" xmlns="http://www.w3.org/2000/svg" xmlns:xlink="http://www.w3.org/1999/xlink" x="0px" y="0px"
	 viewBox="0 0 178.8 86.3" style="enable-background:new 0 0 178.8 86.3;" xml:space="preserve">
<style type="text/css">
	.st0{fill:none;}
	.st1{fill:#0F0E0F;}
	.st2{fill:#DB194B;}
	.st3{filter:url(#Adobe_OpacityMaskFilter);}
	.st4{mask:url(#Layer_4_xA0_Image_2_);}
</style>
<g id="Layer_7">
</g>
<g id="Layer_3_xA0_Image_1_">
</g>
<g id="Rectangle_1_copy_xA0_Image_1_">
	<line class="st0" x1="13.8" y1="20.8" x2="13.8" y2="67.5"/>
	<line class="st1" x1="-25.8" y1="-1.6" x2="-26.7" y2="-1.6"/>
	<line class="st0" x1="41.7" y1="24.1" x2="41.7" y2="60.4"/>
	<line class="st0" x1="106" y1="75.5" x2="106.4" y2="77.3"/>
	<line class="st0" x1="35.5" y1="26.3" x2="35" y2="67.5"/>
	<path class="st2" d="M7.7,67.1c0.4,0.2,0.7,0.3,1.1,0.5V13.4H6.3v53.3C6.8,66.7,7.2,66.9,7.7,67.1z"/>
	<rect x="102.3" y="15.4" class="st2" width="2.4" height="54.3"/>
	<path class="st2" d="M80.4,78l24.2-8.3l-0.8-2.3L52.5,85l0.8,2.3l25.3-8.7C79.2,78.3,79.8,78.1,80.4,78z"/>
	<path class="st2" d="M8,64.5l-1,2.2l17.2,7.5c1.8,0.4,3.4,1.2,4.9,2.1l3.3,1.5c0.4,0.1,0.7,0.3,1,0.4l19.1,8.3l1-2.2L8,64.5z"/>
	<path class="st2" d="M46.3,7.6l-1.6,0.2c-0.4,0.1-0.8,0.2-1.2,0.4c-1.1,0.4-2.1,0.4-3,0.2l-34,4.5l0.3,2.4l49.1-6.5l-0.1-0.8
		C52.6,7.9,49.4,7.8,46.3,7.6z"/>
	<path class="st2" d="M53.1,7.9L6.3,14.1l0.1,0.6l49.5-6.5l0-0.2C54.9,7.9,54,7.9,53.1,7.9z"/>
	<path class="st2" d="M67.9,8.7c-0.2,0-0.4,0.1-0.6,0.1c-3.1,0.1-6.1-0.3-9.2-0.8c-1.1,0-2.2,0-3.3,0l-0.2,1l49.5,8.2l0.4-2.4
		L67.9,8.7z"/>
	<path class="st2" d="M83.1,77.4c0.5-0.4,1-0.6,1.7-0.8V19.5H74.4v58.9h4.8c0.6-0.3,1.2-0.4,1.9-0.4c0.1,0,0.2,0,0.2,0
		C81.8,77.6,82.5,77.4,83.1,77.4z"/>
	<path class="st2" d="M31.9,77.6c0.8,0.1,1.4,0.4,2,0.8c0.1,0.1,0.3,0.2,0.4,0.3V17.9H23.9v56.2c2.5,0.4,4.6,1.7,6.6,3
		C31,77.2,31.5,77.4,31.9,77.6z"/>
	<path class="st2" d="M6.8,14.2c-0.2,0.3-0.4,0.6-0.7,1l50.1,8.2l0.4-2.4L7.4,13C7.3,13.4,7.1,13.8,6.8,14.2z"/>
	<path class="st2" d="M56.4,22.3c-0.1,0.3-0.2,0.6-0.4,0.9l48.8-6.7l-0.3-1.9l-48,6.6C56.6,21.6,56.5,21.9,56.4,22.3z"/>
	<path class="st2" d="M58.1,7.9c-2.7,0-5.3,0-8-0.1l-24.8,9.5l2.5,6.5l39.4-15C64.1,8.9,61.1,8.4,58.1,7.9z"/>
	<path class="st2" d="M63.1,8.6c-1.7-0.2-3.3-0.4-5-0.7C54,8,49.8,7.9,45.7,7.5c-0.3,0.1-0.5,0.1-0.8,0.2l36.8,17.5l3-6.3L63.1,8.6z
		"/>
	<g>
		
			<image style="overflow:visible;" width="141" height="86" xlink:href="540FB394466BCA8E.png"  transform="matrix(0.24 0 0 0.24 36.7003 0.1616)">
		</image>
	</g>
	<line class="st0" x1="-35" y1="7.5" x2="-9" y2="0"/>
	<rect x="32.6" y="-42.9" class="st0" width="23.9" height="1.1"/>
</g>
<defs>
	<filter id="Adobe_OpacityMaskFilter" filterUnits="userSpaceOnUse">
		<feColorMatrix  type="matrix" values="1 0 0 0 0  0 1 0 0 0  0 0 1 0 0  0 0 0 1 0"/>
	</filter>
</defs>
<mask maskUnits="userSpaceOnUse" id="Layer_4_xA0_Image_2_">
	<g id="Layer_4Opacity_Mask_3_" class="st3">
		
			<image style="overflow:visible;" width="2550" height="3300" id="Layer_4Opacity_Mask_2_" xlink:href="FD45327A7BEE660D.jpg"  transform="matrix(0.24 0 0 0.24 -210.24 -452.2483)">
		</image>
	</g>
</mask>
<g id="Layer_4_xA0_Image_1_" class="st4">
</g>
<g id="It.">
	<path class="st2" d="M156.8,21.1c-0.4,0.3-0.9,0.6-1.3,0.8c-0.5,0.2-0.9,0.4-1.5,0.5c-0.5,0.6-0.9,1.3-1.3,2.1
		c-0.7,1.2-1.3,2.4-1.8,3.6c-0.5,1.2-1.1,2.4-1.6,3.7c-1.1,2.7-2.2,5.4-3.2,8.1c-1,2.7-2.2,5.4-3.4,8c-1.2,2.6-2.5,5.3-3.9,7.9
		c-1.4,2.6-3,5-4.9,7.2c-0.9,1-1.8,2-2.8,2.8c-1,0.9-2.1,1.7-3.2,2.3c-1.2,0.6-2.4,1.2-3.6,1.5c-1.3,0.4-2.6,0.5-4,0.4
		c-2.1-0.1-3.8-0.6-5.3-1.5c-1.4-0.9-2.6-2-3.4-3.4c-0.8-1.4-1.4-3-1.8-4.7c-0.3-1.8-0.4-3.5-0.3-5.4c0.1-1.8,0.4-3.6,0.9-5.4
		c0.5-1.8,1.2-3.4,2-4.8c0.7-1.2,1.6-2.4,2.7-3.6c1.1-1.2,2.3-2.1,3.7-3c-0.1-1.3-0.2-2.6-0.1-3.9s0.3-2.5,0.5-3.6
		c0.4-2.3,1.2-4.4,2.3-6.5c1.1-2.1,2.7-3.8,4.7-5c2.3-1.4,4.7-2.1,7.3-2.2c2.5-0.1,5,0.3,7.5,1c1.3,0.4,2.7,0.9,4.1,1.4
		c1.4,0.6,2.9,0.9,4.4,1c0.4-0.2,0.7-0.4,0.9-0.5c0.8-0.5,1.8-0.9,2.8-1.2c1.1-0.3,2.1-0.3,3-0.1c0.8,0.2,1.2,0.5,1.2,1
		C157.5,20.2,157.2,20.7,156.8,21.1z M144.7,25.4c0.3-0.4,0.7-0.9,1.1-1.4c0.4-0.5,0.8-0.9,1.2-1.3c-2.1,0-4.2-0.1-6.3-0.2
		c-2.1-0.1-4.3,0-6.5,0.4c-2,0.4-3.8,1.1-5.5,2.1c-1.7,1-3.2,2.3-4.5,3.8c-1,1.2-1.7,2.4-2.3,3.9c-0.6,1.4-0.8,2.9-0.7,4.4
		c1.3-0.5,2.6-0.8,4-0.9c1.2,0,2.4,0.1,3.6,0.5c1.1,0.4,2.1,1,3,1.8c0.1,0.1,0.4,0.3,0.8,0.7c0.4,0.4,0.4,0.7,0.2,0.9
		c-0.1,0.1-0.3,0.1-0.6,0.1c-0.3,0-0.5-0.1-0.6-0.1c-1.4-0.2-2.8-0.1-4.2,0.2c-1.4,0.3-2.9,0.8-4.3,1.4c1,1.2,2.3,1.9,3.9,2.3
		c1.6,0.4,3.1,0.4,4.6,0.2c0.2,0,0.3,0.1,0.3,0.2c0,0.1-0.1,0.3-0.2,0.5c-0.1,0.2-0.3,0.5-0.6,0.9c-0.6,0.7-1.3,1.2-2.1,1.5
		s-1.6,0.3-2.4,0.3c-0.8-0.1-1.7-0.3-2.5-0.7c-0.8-0.4-1.5-0.9-2.2-1.4c-0.6-0.5-1.1-1.2-1.6-2.1c-2,1.4-3.7,3.1-5,5
		c-0.8,1.3-1.5,2.7-2.1,4.2c-0.6,1.5-0.9,3-1,4.5c-0.1,1.5,0,3,0.4,4.6s1.2,2.8,2.4,3.9c0.8,0.6,1.6,1,2.5,1.3s1.8,0.3,2.7,0.2
		c0.9-0.1,1.8-0.3,2.6-0.7c0.8-0.4,1.6-0.9,2.3-1.5c1.7-1.5,3.1-3.4,4.2-5.5c1.1-2.1,2.1-4.2,3-6.3c1-2.3,1.9-4.6,2.8-7
		s1.8-4.7,2.7-7.1c0.9-2.4,2-4.7,3.1-6.9C141.8,29.5,143.1,27.4,144.7,25.4z"/>
	<path class="st2" d="M164.3,58.8c0.1-0.4,0.3-0.6,0.6-0.8c0.2-0.1,0.5-0.1,0.7-0.1c0.2,0.1,0.4,0.2,0.5,0.5c0.1,0.3,0.1,0.6,0,1
		c-1.3,3.6-3.2,6.5-5.5,8.6c-2.3,2.2-4.8,3.2-7.4,3.2c-1.3,0-2.4-0.2-3.3-0.7c-0.9-0.5-1.6-1.2-2.1-2.2c-0.4-1-0.6-2.3-0.5-3.9
		c0.1-1.6,0.5-3.4,1.3-5.5c0.3-0.9,0.6-1.9,1-3.1c0.4-1.1,0.8-2.3,1.2-3.6c0.4-1.2,0.9-2.5,1.4-3.9c0.5-1.3,0.9-2.6,1.4-3.9h-3
		l0.9-2h2.7l0.6-1.8c0.5-1.6,1.1-2.9,1.8-4c0.6-1.1,1.4-1.9,2.3-2.6c0.9-0.6,2-1.1,3.2-1.3c1.2-0.3,2.6-0.4,4.2-0.4h0.1
		c-0.3,0.9-0.6,1.9-1,3c-0.3,0.9-0.7,2-1.2,3.2c-0.4,1.2-0.9,2.5-1.4,3.9l4.7-0.4l-1.4,2.4h-4l-6.3,18.5c-0.6,1.7-0.9,3-0.7,3.7
		c0.2,0.7,0.6,1.1,1.2,1.1c0.4,0,0.9-0.2,1.5-0.5s1.3-0.8,2.1-1.5c0.7-0.7,1.5-1.7,2.2-2.8C162.9,62,163.7,60.5,164.3,58.8z"/>
	<path class="st2" d="M175.8,62.9c0.8,0.9,1.2,1.9,1.2,3.2c0,1.3-0.6,2.4-1.5,3.5c-0.9,1-2,1.6-3.2,1.7s-2.2-0.3-3.1-1.1
		c-0.8-0.9-1.2-1.9-1.2-3.2c0-1.3,0.6-2.4,1.5-3.5c0.9-1,2-1.6,3.2-1.7C174,61.8,175,62.1,175.8,62.9z"/>
</g>
<g id="Layer_2_xA0_Image_1_">
</g>
<g id="_x3C_Type_x3E_">
</g>
</svg>
